# xmcd
# 
# Track frame offsets:
#     150
#     28240
#     57256
#     82046
#     122758
#     142618
#     167862
#     198667
#     243416
#     279066
# 
# Disc length: 4071
# 
# Revision: 2
# Processed by: cddbd v1.5.2PL0 Copyright (c) Steve Scherf et al.
# Submitted via: fre:ac v1.1beta1pre5
# 
DISCID=870fe50a
DTITLE=Matt Schofield - Ten From The Road
DYEAR=2012
DGENRE=Blues
TTITLE0=Ear To The Ground
TTITLE1=Don't Know What I'd Do
TTITLE2=Live Wire
TTITLE3=Where Do I Have To Stand
TTITLE4=Anything But Time
TTITLE5=Dreaming Of You
TTITLE6=Shipwrecked
TTITLE7=See Me Through
TTITLE8=Siftin' Through Ashes
TTITLE9=Not Raining Now
EXTD=
EXTT0=
EXTT1=
EXTT2=
EXTT3=
EXTT4=
EXTT5=
EXTT6=
EXTT7=
EXTT8=
EXTT9=
PLAYORDER=
